<svg xmlns="http://www.w3.org/2000/svg" xmlns:svg="http://www.w3.org/2000/svg" id="svg21" width="35.075" height="19.137" version="1.1" viewBox="0 0 26.306 14.353"><metadata id="metadata27"/><g id="surface1" transform="translate(-294.89582,-73.790354)"><path id="path2" fill="none" stroke="#000" stroke-linecap="round" stroke-linejoin="round" stroke-miterlimit="10" stroke-opacity="1" stroke-width=".398" d="M -7.750125,-3.208781 C -3.507938,1.037312 3.367062,1.068562 7.652219,-3.111125" transform="matrix(1,0,0,-1,308.047,80.967)"/><path id="path4" fill="none" stroke="#000" stroke-linecap="round" stroke-linejoin="round" stroke-miterlimit="10" stroke-opacity="1" stroke-width=".398" d="m -1.25e-4,-3.986125 4.980469,8.96875" transform="matrix(1,0,0,-1,308.047,80.967)"/><path id="path6" fill="none" stroke="#000" stroke-linecap="round" stroke-linejoin="round" stroke-miterlimit="10" stroke-opacity="1" stroke-width=".398" d="M 21.919625,6.974812 H 3.986031" transform="matrix(1,0,0,-1,295.096,80.967)"/><path id="path8" fill="none" stroke="#000" stroke-linecap="round" stroke-linejoin="round" stroke-miterlimit="10" stroke-opacity="1" stroke-width=".398" d="M 3.986031,6.974812 V -6.974406" transform="matrix(1,0,0,-1,295.096,80.967)"/><path id="path10" fill="none" stroke="#000" stroke-linecap="round" stroke-linejoin="round" stroke-miterlimit="10" stroke-opacity="1" stroke-width=".398" d="M 3.986031,-6.974406 H 21.919625" transform="matrix(1,0,0,-1,295.096,80.967)"/><path id="path12" fill="none" stroke="#000" stroke-linecap="round" stroke-linejoin="round" stroke-miterlimit="10" stroke-opacity="1" stroke-width=".398" d="M 21.919625,-6.974406 V 6.974812" transform="matrix(1,0,0,-1,295.096,80.967)"/><path id="path14" fill="none" stroke="#000" stroke-linecap="round" stroke-linejoin="round" stroke-miterlimit="10" stroke-opacity="1" stroke-width=".398" d="M 3.986031,-0.00175 H 0.00165625" transform="matrix(1,0,0,-1,295.096,80.967)"/><path id="path16" fill="none" stroke="#000" stroke-linecap="round" stroke-linejoin="round" stroke-miterlimit="10" stroke-opacity="1" stroke-width=".398" d="M 25.904,-0.00184375 H 21.919625" transform="matrix(1,0,0,-1,295.096,81.963)"/><path id="path18" fill="none" stroke="#000" stroke-linecap="round" stroke-linejoin="round" stroke-miterlimit="10" stroke-opacity="1" stroke-width=".398" d="M 25.904,0.00125 H 21.919625" transform="matrix(1,0,0,-1,295.096,79.97)"/></g></svg>